{"title":"Andy.Grammer.Keep.Your.Head.Up.mp4-1080p - CTB731","uid":6645827,"size":128478457,"categoryP":"video","categoryS":"music_videos","magnet":"?xt=urn:btih:40e4de3ee9ce96dd7451031d2b6e911d89b9d5fd&amp;dn=Andy.Grammer.Keep.Your.Head.Up.mp4-1080p+-+CTB731&amp;tr=udp%3A%2F%2Ftracker.openbittorrent.com%3A80&amp;tr=udp%3A%2F%2Fopen.demonii.com%3A1337&amp;tr=udp%3A%2F%2Ftracker.coppersurfer.tk%3A6969&amp;tr=udp%3A%2F%2Fexodus.desync.com%3A6969","seeders":3,"leechers":1,"uploader":"Cross_the_border731","files":-1,"time":1314951361,"description":"Ripped from YouTube. Not my work.\n\n==================================\nGeneral Complete name :Andy Grammer - Keep Your Head Up.mp4 \nFormat : MPEG-4 \nFormat profile : Base Media / Version 2 \nCodec ID : mp42 \nFile size : 122 MiB \nDuration : 3mn 15s \nOverall bit rate : 5,243 Kbps\n==================================\n\n\nVideo Stream:\n==================================\n\nFormat : AVC \n\nFormat/Info : Advanced Video Codec \n\nFormat profile : &lt;a class=&quot;__cf_email__&quot; href=&quot;/cdn-cgi/l/email-protection&quot; data-cfemail=&quot;82caebe5eac2ceb6acb2&quot;&gt;[email&amp;#160;protected]&lt;/a&gt;&lt;script data-cfhash='f9e31' type=&quot;text/javascript&quot;&gt;\n/* &lt;![CDATA[ */!function(){try{var t=&quot;currentScript&quot;in document?document.currentScript:function(){for(var t=document.getElementsByTagName(&quot;script&quot;),e=t.length;e--;)if(t[e].getAttribute(&quot;data-cfhash&quot;))return t[e]}();if(t&amp;&amp;t.previousSibling){var e,r,n,i,c=t.previousSibling,a=c.getAttribute(&quot;data-cfemail&quot;);if(a){for(e=&quot;&quot;,r=parseInt(a.substr(0,2),16),n=2;a.length-n;n+=2)i=parseInt(a.substr(n,2),16)^r,e+=String.fromCharCode(i);e=document.createTextNode(e),c.parentNode.replaceChild(e,c)}t.parentNode.removeChild(t);}}catch(u){}}()/* ]]&gt; */&lt;/script&gt; \n\nFormat settings, CABAC : Yes \n\nFormat settings, ReFrames : 1 frame \n\nFormat settings, GOP : M=1, N=48 \n\nCodec ID : avc1 \n\nCodec ID/Info : Advanced Video Coding \n\nDuration : 3mn 15s \n\nBit rate mode : Variable \n\nBit rate : 5113 Kbps \n\nMaximum bit rate : 12.3 Mbps \n\nWidth : 1920 pixels \n\nHeight : 1080 pixels \n\nDisplay aspect ratio : 16:9 \n\nFrame rate mode : Variable \n\nFrame rate : 23.976 fps \n\nMinimum frame rate : 17.241 fps \n\nMaximum frame rate : 24.390 fps \n\nColor space : YUV \n\nChroma subsampling : 4:2:0 \n\nBit depth : 8 bits \n\nScan type : Progressive \n\nBits/(Pixel*Frame) : 0.103 \n\nStream size : 119 MiB (98%) \n\n\n\n\nAudio Stream:\n====================================\n\nFormat : AAC \n\nFormat/Info : Advanced Audio Codec \n\nFormat profile : LC \n\nCodec ID : 40 \n\nDuration : 3mn 15s \n\nBit rate mode : Variable \n\nBit rate : 124 Kbps \n\nMaximum bit rate : 196 Kbps \n\nChannel(s) : 2 channels \n\nChannel positions : Front: L R \n\nSampling rate : 44.1 KHz \n\nCompression mode : Lossy \n\nStream size : 2.89 MiB (2%) \n\nTitle : (C) 2007 Google Inc. v08.13.2007.","torrent":{"xt":"urn:btih:40e4de3ee9ce96dd7451031d2b6e911d89b9d5fd","amp;dn":"Andy.Grammer.Keep.Your.Head.Up.mp4-1080p+-+CTB731","amp;tr":["udp%3A%2F%2Ftracker.openbittorrent.com%3A80","udp%3A%2F%2Fopen.demonii.com%3A1337","udp%3A%2F%2Ftracker.coppersurfer.tk%3A6969","udp%3A%2F%2Fexodus.desync.com%3A6969"],"infoHash":"40e4de3ee9ce96dd7451031d2b6e911d89b9d5fd","infoHashBuffer":{"type":"Buffer","data":[64,228,222,62,233,206,150,221,116,81,3,29,43,110,145,29,137,185,213,253]},"announce":[],"urlList":[]}}